<mxfile host="app.diagrams.net" modified="2023-02-08T15:15:58.678Z" agent="5.0 (Windows NT 10.0; Win64; x64) AppleWebKit/537.36 (KHTML, like Gecko) Chrome/109.0.0.0 Safari/537.36" etag="xjUbwegyvjnumD0jCHio" version="20.8.18" type="github">
  <diagram name="Page-1" id="QNGUiWGIfLsFwgAOUM8f">
    <mxGraphModel dx="1434" dy="796" grid="1" gridSize="10" guides="1" tooltips="1" connect="1" arrows="1" fold="1" page="1" pageScale="1" pageWidth="1100" pageHeight="850" math="0" shadow="0">
      <root>
        <mxCell id="0" />
        <mxCell id="1" parent="0" />
        <mxCell id="cnsQO3hfbhY0Tbhmgtdn-29" style="edgeStyle=orthogonalEdgeStyle;rounded=0;orthogonalLoop=1;jettySize=auto;html=1;exitX=0.5;exitY=1;exitDx=0;exitDy=0;entryX=0.592;entryY=0;entryDx=0;entryDy=0;entryPerimeter=0;" edge="1" parent="1" source="HBkWnTScj8e8vz8MUaLF-1" target="HBkWnTScj8e8vz8MUaLF-2">
          <mxGeometry relative="1" as="geometry" />
        </mxCell>
        <mxCell id="HBkWnTScj8e8vz8MUaLF-1" value="Start: Make a new word" style="ellipse;whiteSpace=wrap;html=1;" parent="1" vertex="1">
          <mxGeometry x="250" y="10" width="120" height="80" as="geometry" />
        </mxCell>
        <mxCell id="cnsQO3hfbhY0Tbhmgtdn-30" style="edgeStyle=orthogonalEdgeStyle;rounded=0;orthogonalLoop=1;jettySize=auto;html=1;exitX=0.5;exitY=1;exitDx=0;exitDy=0;" edge="1" parent="1" source="HBkWnTScj8e8vz8MUaLF-2" target="cnsQO3hfbhY0Tbhmgtdn-1">
          <mxGeometry relative="1" as="geometry" />
        </mxCell>
        <mxCell id="HBkWnTScj8e8vz8MUaLF-2" value="User inputs Word 1" style="shape=parallelogram;perimeter=parallelogramPerimeter;whiteSpace=wrap;html=1;fixedSize=1;" parent="1" vertex="1">
          <mxGeometry x="240" y="110" width="120" height="60" as="geometry" />
        </mxCell>
        <mxCell id="cnsQO3hfbhY0Tbhmgtdn-31" style="edgeStyle=orthogonalEdgeStyle;rounded=0;orthogonalLoop=1;jettySize=auto;html=1;exitX=0.5;exitY=1;exitDx=0;exitDy=0;entryX=0.5;entryY=0;entryDx=0;entryDy=0;" edge="1" parent="1" source="cnsQO3hfbhY0Tbhmgtdn-1" target="cnsQO3hfbhY0Tbhmgtdn-2">
          <mxGeometry relative="1" as="geometry" />
        </mxCell>
        <mxCell id="cnsQO3hfbhY0Tbhmgtdn-1" value="Word 1 definition is generated&amp;nbsp;" style="rhombus;whiteSpace=wrap;html=1;" vertex="1" parent="1">
          <mxGeometry x="230" y="190" width="140" height="120" as="geometry" />
        </mxCell>
        <mxCell id="cnsQO3hfbhY0Tbhmgtdn-32" style="edgeStyle=orthogonalEdgeStyle;rounded=0;orthogonalLoop=1;jettySize=auto;html=1;exitX=0.5;exitY=1;exitDx=0;exitDy=0;entryX=0.5;entryY=0;entryDx=0;entryDy=0;" edge="1" parent="1" source="cnsQO3hfbhY0Tbhmgtdn-2" target="cnsQO3hfbhY0Tbhmgtdn-3">
          <mxGeometry relative="1" as="geometry" />
        </mxCell>
        <mxCell id="cnsQO3hfbhY0Tbhmgtdn-2" value="User inputs Word 2" style="shape=parallelogram;perimeter=parallelogramPerimeter;whiteSpace=wrap;html=1;fixedSize=1;" vertex="1" parent="1">
          <mxGeometry x="240" y="320" width="120" height="60" as="geometry" />
        </mxCell>
        <mxCell id="cnsQO3hfbhY0Tbhmgtdn-33" style="edgeStyle=orthogonalEdgeStyle;rounded=0;orthogonalLoop=1;jettySize=auto;html=1;exitX=0.5;exitY=1;exitDx=0;exitDy=0;" edge="1" parent="1" source="cnsQO3hfbhY0Tbhmgtdn-3" target="cnsQO3hfbhY0Tbhmgtdn-4">
          <mxGeometry relative="1" as="geometry" />
        </mxCell>
        <mxCell id="cnsQO3hfbhY0Tbhmgtdn-3" value="Word 2 definition is generated" style="rhombus;whiteSpace=wrap;html=1;" vertex="1" parent="1">
          <mxGeometry x="230" y="400" width="140" height="120" as="geometry" />
        </mxCell>
        <mxCell id="cnsQO3hfbhY0Tbhmgtdn-65" style="edgeStyle=orthogonalEdgeStyle;rounded=0;orthogonalLoop=1;jettySize=auto;html=1;exitX=1;exitY=0.5;exitDx=0;exitDy=0;" edge="1" parent="1" source="cnsQO3hfbhY0Tbhmgtdn-4">
          <mxGeometry relative="1" as="geometry">
            <mxPoint x="530" y="570" as="targetPoint" />
          </mxGeometry>
        </mxCell>
        <mxCell id="cnsQO3hfbhY0Tbhmgtdn-4" value="User hits &quot;Combine Words&quot;" style="shape=parallelogram;perimeter=parallelogramPerimeter;whiteSpace=wrap;html=1;fixedSize=1;" vertex="1" parent="1">
          <mxGeometry x="240" y="540" width="120" height="60" as="geometry" />
        </mxCell>
        <mxCell id="cnsQO3hfbhY0Tbhmgtdn-39" style="edgeStyle=orthogonalEdgeStyle;rounded=0;orthogonalLoop=1;jettySize=auto;html=1;exitX=0.5;exitY=1;exitDx=0;exitDy=0;entryX=0.5;entryY=0;entryDx=0;entryDy=0;" edge="1" parent="1" source="cnsQO3hfbhY0Tbhmgtdn-9" target="cnsQO3hfbhY0Tbhmgtdn-10">
          <mxGeometry relative="1" as="geometry" />
        </mxCell>
        <mxCell id="cnsQO3hfbhY0Tbhmgtdn-9" value="Word 1 length is less than 3 letters" style="rounded=0;whiteSpace=wrap;html=1;" vertex="1" parent="1">
          <mxGeometry x="20" y="630" width="120" height="60" as="geometry" />
        </mxCell>
        <mxCell id="cnsQO3hfbhY0Tbhmgtdn-81" style="edgeStyle=orthogonalEdgeStyle;rounded=0;orthogonalLoop=1;jettySize=auto;html=1;exitX=0.5;exitY=1;exitDx=0;exitDy=0;" edge="1" parent="1" source="cnsQO3hfbhY0Tbhmgtdn-10">
          <mxGeometry relative="1" as="geometry">
            <mxPoint x="940" y="1100" as="targetPoint" />
            <Array as="points">
              <mxPoint x="80" y="1106" />
            </Array>
          </mxGeometry>
        </mxCell>
        <mxCell id="cnsQO3hfbhY0Tbhmgtdn-10" value="First 2 letters of Word 1 added to Word 2&amp;nbsp;" style="rhombus;whiteSpace=wrap;html=1;" vertex="1" parent="1">
          <mxGeometry x="10" y="740" width="140" height="120" as="geometry" />
        </mxCell>
        <mxCell id="cnsQO3hfbhY0Tbhmgtdn-40" style="edgeStyle=orthogonalEdgeStyle;rounded=0;orthogonalLoop=1;jettySize=auto;html=1;exitX=0.5;exitY=1;exitDx=0;exitDy=0;entryX=0.5;entryY=0;entryDx=0;entryDy=0;" edge="1" parent="1" source="cnsQO3hfbhY0Tbhmgtdn-13" target="cnsQO3hfbhY0Tbhmgtdn-16">
          <mxGeometry relative="1" as="geometry" />
        </mxCell>
        <mxCell id="cnsQO3hfbhY0Tbhmgtdn-13" value="Word 1 length is more than 3 letters" style="rounded=0;whiteSpace=wrap;html=1;" vertex="1" parent="1">
          <mxGeometry x="190" y="630" width="120" height="60" as="geometry" />
        </mxCell>
        <mxCell id="cnsQO3hfbhY0Tbhmgtdn-41" style="edgeStyle=orthogonalEdgeStyle;rounded=0;orthogonalLoop=1;jettySize=auto;html=1;exitX=0.5;exitY=1;exitDx=0;exitDy=0;entryX=0.5;entryY=0;entryDx=0;entryDy=0;" edge="1" parent="1" source="cnsQO3hfbhY0Tbhmgtdn-14" target="cnsQO3hfbhY0Tbhmgtdn-17">
          <mxGeometry relative="1" as="geometry" />
        </mxCell>
        <mxCell id="cnsQO3hfbhY0Tbhmgtdn-14" value="Word 2 length is less than 3 letters" style="rounded=0;whiteSpace=wrap;html=1;" vertex="1" parent="1">
          <mxGeometry x="350" y="630" width="120" height="60" as="geometry" />
        </mxCell>
        <mxCell id="cnsQO3hfbhY0Tbhmgtdn-42" style="edgeStyle=orthogonalEdgeStyle;rounded=0;orthogonalLoop=1;jettySize=auto;html=1;exitX=0.5;exitY=1;exitDx=0;exitDy=0;entryX=0.5;entryY=0;entryDx=0;entryDy=0;" edge="1" parent="1" source="cnsQO3hfbhY0Tbhmgtdn-15" target="cnsQO3hfbhY0Tbhmgtdn-18">
          <mxGeometry relative="1" as="geometry" />
        </mxCell>
        <mxCell id="cnsQO3hfbhY0Tbhmgtdn-15" value="Word 2 length is more than 3 letters" style="rounded=0;whiteSpace=wrap;html=1;" vertex="1" parent="1">
          <mxGeometry x="490" y="630" width="120" height="60" as="geometry" />
        </mxCell>
        <mxCell id="cnsQO3hfbhY0Tbhmgtdn-82" style="edgeStyle=orthogonalEdgeStyle;rounded=0;orthogonalLoop=1;jettySize=auto;html=1;exitX=0.5;exitY=1;exitDx=0;exitDy=0;entryX=0;entryY=0.5;entryDx=0;entryDy=0;" edge="1" parent="1" source="cnsQO3hfbhY0Tbhmgtdn-16" target="cnsQO3hfbhY0Tbhmgtdn-78">
          <mxGeometry relative="1" as="geometry" />
        </mxCell>
        <mxCell id="cnsQO3hfbhY0Tbhmgtdn-16" value="First 3 letters of Word 1 added to Word 2&amp;nbsp;" style="rhombus;whiteSpace=wrap;html=1;" vertex="1" parent="1">
          <mxGeometry x="180" y="740" width="140" height="120" as="geometry" />
        </mxCell>
        <mxCell id="cnsQO3hfbhY0Tbhmgtdn-83" style="edgeStyle=orthogonalEdgeStyle;rounded=0;orthogonalLoop=1;jettySize=auto;html=1;exitX=0.5;exitY=1;exitDx=0;exitDy=0;entryX=0;entryY=0.425;entryDx=0;entryDy=0;entryPerimeter=0;" edge="1" parent="1" source="cnsQO3hfbhY0Tbhmgtdn-17" target="cnsQO3hfbhY0Tbhmgtdn-78">
          <mxGeometry relative="1" as="geometry">
            <mxPoint x="710" y="1000" as="targetPoint" />
          </mxGeometry>
        </mxCell>
        <mxCell id="cnsQO3hfbhY0Tbhmgtdn-17" value="Last 2 letters of Word 2&amp;nbsp; added to Word 1&amp;nbsp;" style="rhombus;whiteSpace=wrap;html=1;" vertex="1" parent="1">
          <mxGeometry x="340" y="740" width="140" height="120" as="geometry" />
        </mxCell>
        <mxCell id="cnsQO3hfbhY0Tbhmgtdn-86" style="edgeStyle=orthogonalEdgeStyle;rounded=0;orthogonalLoop=1;jettySize=auto;html=1;exitX=0.5;exitY=1;exitDx=0;exitDy=0;" edge="1" parent="1" source="cnsQO3hfbhY0Tbhmgtdn-18" target="cnsQO3hfbhY0Tbhmgtdn-78">
          <mxGeometry relative="1" as="geometry">
            <Array as="points">
              <mxPoint x="550" y="1050" />
            </Array>
          </mxGeometry>
        </mxCell>
        <mxCell id="cnsQO3hfbhY0Tbhmgtdn-18" value="Last 3 letters of Word 1 added to Word 2&amp;nbsp;" style="rhombus;whiteSpace=wrap;html=1;" vertex="1" parent="1">
          <mxGeometry x="480" y="740" width="140" height="120" as="geometry" />
        </mxCell>
        <mxCell id="cnsQO3hfbhY0Tbhmgtdn-28" value="" style="endArrow=none;html=1;rounded=0;entryX=0;entryY=1;entryDx=0;entryDy=0;" edge="1" parent="1" target="cnsQO3hfbhY0Tbhmgtdn-4">
          <mxGeometry width="50" height="50" relative="1" as="geometry">
            <mxPoint x="140" y="630" as="sourcePoint" />
            <mxPoint x="190" y="580" as="targetPoint" />
          </mxGeometry>
        </mxCell>
        <mxCell id="cnsQO3hfbhY0Tbhmgtdn-35" value="" style="endArrow=none;html=1;rounded=0;entryX=0.317;entryY=0.983;entryDx=0;entryDy=0;entryPerimeter=0;" edge="1" parent="1" target="cnsQO3hfbhY0Tbhmgtdn-4">
          <mxGeometry width="50" height="50" relative="1" as="geometry">
            <mxPoint x="250" y="630" as="sourcePoint" />
            <mxPoint x="300" y="580" as="targetPoint" />
          </mxGeometry>
        </mxCell>
        <mxCell id="cnsQO3hfbhY0Tbhmgtdn-36" value="" style="endArrow=none;html=1;rounded=0;entryX=0;entryY=0;entryDx=0;entryDy=0;" edge="1" parent="1" target="cnsQO3hfbhY0Tbhmgtdn-14">
          <mxGeometry width="50" height="50" relative="1" as="geometry">
            <mxPoint x="340" y="600" as="sourcePoint" />
            <mxPoint x="440" y="570" as="targetPoint" />
          </mxGeometry>
        </mxCell>
        <mxCell id="cnsQO3hfbhY0Tbhmgtdn-37" value="" style="endArrow=none;html=1;rounded=0;entryX=0;entryY=0;entryDx=0;entryDy=0;" edge="1" parent="1" target="cnsQO3hfbhY0Tbhmgtdn-15">
          <mxGeometry width="50" height="50" relative="1" as="geometry">
            <mxPoint x="340" y="600" as="sourcePoint" />
            <mxPoint x="450" y="610" as="targetPoint" />
          </mxGeometry>
        </mxCell>
        <mxCell id="cnsQO3hfbhY0Tbhmgtdn-76" style="edgeStyle=orthogonalEdgeStyle;rounded=0;orthogonalLoop=1;jettySize=auto;html=1;exitX=1;exitY=0.5;exitDx=0;exitDy=0;" edge="1" parent="1" source="cnsQO3hfbhY0Tbhmgtdn-53" target="cnsQO3hfbhY0Tbhmgtdn-54">
          <mxGeometry relative="1" as="geometry" />
        </mxCell>
        <mxCell id="cnsQO3hfbhY0Tbhmgtdn-53" value="Word 1 definition is less than 5 words" style="rounded=0;whiteSpace=wrap;html=1;" vertex="1" parent="1">
          <mxGeometry x="720" y="230" width="120" height="60" as="geometry" />
        </mxCell>
        <mxCell id="cnsQO3hfbhY0Tbhmgtdn-90" style="edgeStyle=orthogonalEdgeStyle;rounded=0;orthogonalLoop=1;jettySize=auto;html=1;exitX=1;exitY=0.5;exitDx=0;exitDy=0;entryX=1;entryY=0.5;entryDx=0;entryDy=0;" edge="1" parent="1" source="cnsQO3hfbhY0Tbhmgtdn-54" target="cnsQO3hfbhY0Tbhmgtdn-78">
          <mxGeometry relative="1" as="geometry">
            <mxPoint x="1060" y="1050" as="targetPoint" />
            <Array as="points">
              <mxPoint x="1080" y="260" />
              <mxPoint x="1080" y="1075" />
            </Array>
          </mxGeometry>
        </mxCell>
        <mxCell id="cnsQO3hfbhY0Tbhmgtdn-54" value="First 2 words of Word 1 Def added to Word 2 Def" style="rhombus;whiteSpace=wrap;html=1;" vertex="1" parent="1">
          <mxGeometry x="870" y="200" width="140" height="120" as="geometry" />
        </mxCell>
        <mxCell id="cnsQO3hfbhY0Tbhmgtdn-75" style="edgeStyle=orthogonalEdgeStyle;rounded=0;orthogonalLoop=1;jettySize=auto;html=1;exitX=1;exitY=0.5;exitDx=0;exitDy=0;entryX=0;entryY=0.5;entryDx=0;entryDy=0;" edge="1" parent="1" source="cnsQO3hfbhY0Tbhmgtdn-55" target="cnsQO3hfbhY0Tbhmgtdn-58">
          <mxGeometry relative="1" as="geometry" />
        </mxCell>
        <mxCell id="cnsQO3hfbhY0Tbhmgtdn-55" value="Word 1 definition is more than 5 words" style="rounded=0;whiteSpace=wrap;html=1;" vertex="1" parent="1">
          <mxGeometry x="720" y="370" width="120" height="60" as="geometry" />
        </mxCell>
        <mxCell id="cnsQO3hfbhY0Tbhmgtdn-73" style="edgeStyle=orthogonalEdgeStyle;rounded=0;orthogonalLoop=1;jettySize=auto;html=1;exitX=1;exitY=0.5;exitDx=0;exitDy=0;entryX=0;entryY=0.5;entryDx=0;entryDy=0;" edge="1" parent="1" source="cnsQO3hfbhY0Tbhmgtdn-56" target="cnsQO3hfbhY0Tbhmgtdn-59">
          <mxGeometry relative="1" as="geometry" />
        </mxCell>
        <mxCell id="cnsQO3hfbhY0Tbhmgtdn-56" value="Word 2 definition is less than 5 words" style="rounded=0;whiteSpace=wrap;html=1;" vertex="1" parent="1">
          <mxGeometry x="720" y="510" width="120" height="60" as="geometry" />
        </mxCell>
        <mxCell id="cnsQO3hfbhY0Tbhmgtdn-74" style="edgeStyle=orthogonalEdgeStyle;rounded=0;orthogonalLoop=1;jettySize=auto;html=1;exitX=1;exitY=0.5;exitDx=0;exitDy=0;entryX=0;entryY=0.5;entryDx=0;entryDy=0;" edge="1" parent="1" source="cnsQO3hfbhY0Tbhmgtdn-57" target="cnsQO3hfbhY0Tbhmgtdn-60">
          <mxGeometry relative="1" as="geometry" />
        </mxCell>
        <mxCell id="cnsQO3hfbhY0Tbhmgtdn-57" value="Word 2 definition is more than 5 words" style="rounded=0;whiteSpace=wrap;html=1;" vertex="1" parent="1">
          <mxGeometry x="720" y="660" width="120" height="60" as="geometry" />
        </mxCell>
        <mxCell id="cnsQO3hfbhY0Tbhmgtdn-89" style="edgeStyle=orthogonalEdgeStyle;rounded=0;orthogonalLoop=1;jettySize=auto;html=1;exitX=1;exitY=0.5;exitDx=0;exitDy=0;entryX=0.967;entryY=0.35;entryDx=0;entryDy=0;entryPerimeter=0;" edge="1" parent="1" source="cnsQO3hfbhY0Tbhmgtdn-58" target="cnsQO3hfbhY0Tbhmgtdn-78">
          <mxGeometry relative="1" as="geometry" />
        </mxCell>
        <mxCell id="cnsQO3hfbhY0Tbhmgtdn-58" value="First 5 words of Word 1 Def added to Word 2 Def" style="rhombus;whiteSpace=wrap;html=1;" vertex="1" parent="1">
          <mxGeometry x="870" y="340" width="140" height="120" as="geometry" />
        </mxCell>
        <mxCell id="cnsQO3hfbhY0Tbhmgtdn-88" style="edgeStyle=orthogonalEdgeStyle;rounded=0;orthogonalLoop=1;jettySize=auto;html=1;exitX=1;exitY=0.5;exitDx=0;exitDy=0;entryX=1;entryY=0;entryDx=0;entryDy=0;" edge="1" parent="1" source="cnsQO3hfbhY0Tbhmgtdn-59" target="cnsQO3hfbhY0Tbhmgtdn-78">
          <mxGeometry relative="1" as="geometry" />
        </mxCell>
        <mxCell id="cnsQO3hfbhY0Tbhmgtdn-59" value="Last 2 words of Word 2 Def added to Word 1 Def" style="rhombus;whiteSpace=wrap;html=1;" vertex="1" parent="1">
          <mxGeometry x="870" y="480" width="140" height="120" as="geometry" />
        </mxCell>
        <mxCell id="cnsQO3hfbhY0Tbhmgtdn-92" style="edgeStyle=orthogonalEdgeStyle;rounded=0;orthogonalLoop=1;jettySize=auto;html=1;exitX=1;exitY=0.5;exitDx=0;exitDy=0;entryX=0.736;entryY=0.054;entryDx=0;entryDy=0;entryPerimeter=0;" edge="1" parent="1" source="cnsQO3hfbhY0Tbhmgtdn-60" target="cnsQO3hfbhY0Tbhmgtdn-78">
          <mxGeometry relative="1" as="geometry" />
        </mxCell>
        <mxCell id="cnsQO3hfbhY0Tbhmgtdn-60" value="Last 5 words of Word 1 Def added to Word 2 Def" style="rhombus;whiteSpace=wrap;html=1;" vertex="1" parent="1">
          <mxGeometry x="870" y="630" width="140" height="120" as="geometry" />
        </mxCell>
        <mxCell id="cnsQO3hfbhY0Tbhmgtdn-61" value="Definitions generated for each word." style="rounded=0;whiteSpace=wrap;html=1;" vertex="1" parent="1">
          <mxGeometry x="530" y="540" width="120" height="60" as="geometry" />
        </mxCell>
        <mxCell id="cnsQO3hfbhY0Tbhmgtdn-66" value="" style="endArrow=none;html=1;rounded=0;exitX=1;exitY=0.75;exitDx=0;exitDy=0;entryX=0;entryY=0.75;entryDx=0;entryDy=0;" edge="1" parent="1" target="cnsQO3hfbhY0Tbhmgtdn-56">
          <mxGeometry width="50" height="50" relative="1" as="geometry">
            <mxPoint x="650" y="575" as="sourcePoint" />
            <mxPoint x="910" y="570" as="targetPoint" />
          </mxGeometry>
        </mxCell>
        <mxCell id="cnsQO3hfbhY0Tbhmgtdn-67" value="" style="endArrow=none;html=1;rounded=0;entryX=0;entryY=0;entryDx=0;entryDy=0;" edge="1" parent="1" target="cnsQO3hfbhY0Tbhmgtdn-57">
          <mxGeometry width="50" height="50" relative="1" as="geometry">
            <mxPoint x="650" y="600" as="sourcePoint" />
            <mxPoint x="700" y="550" as="targetPoint" />
          </mxGeometry>
        </mxCell>
        <mxCell id="cnsQO3hfbhY0Tbhmgtdn-70" value="" style="endArrow=none;html=1;rounded=0;exitX=0.992;exitY=0.4;exitDx=0;exitDy=0;exitPerimeter=0;entryX=0;entryY=1;entryDx=0;entryDy=0;" edge="1" parent="1" source="cnsQO3hfbhY0Tbhmgtdn-61" target="cnsQO3hfbhY0Tbhmgtdn-55">
          <mxGeometry width="50" height="50" relative="1" as="geometry">
            <mxPoint x="860" y="630" as="sourcePoint" />
            <mxPoint x="910" y="580" as="targetPoint" />
          </mxGeometry>
        </mxCell>
        <mxCell id="cnsQO3hfbhY0Tbhmgtdn-71" value="" style="endArrow=none;html=1;rounded=0;exitX=1;exitY=0;exitDx=0;exitDy=0;entryX=0;entryY=1;entryDx=0;entryDy=0;" edge="1" parent="1" source="cnsQO3hfbhY0Tbhmgtdn-61" target="cnsQO3hfbhY0Tbhmgtdn-53">
          <mxGeometry width="50" height="50" relative="1" as="geometry">
            <mxPoint x="659" y="574" as="sourcePoint" />
            <mxPoint x="730" y="390" as="targetPoint" />
          </mxGeometry>
        </mxCell>
        <mxCell id="cnsQO3hfbhY0Tbhmgtdn-78" value="End: New word and definition is generated" style="ellipse;whiteSpace=wrap;html=1;" vertex="1" parent="1">
          <mxGeometry x="930" y="1010" width="140" height="130" as="geometry" />
        </mxCell>
      </root>
    </mxGraphModel>
  </diagram>
</mxfile>
